<?xml version="1.0" standalone="no"?>
<!DOCTYPE svg PUBLIC "-//W3C//DTD SVG 20010904//EN"
 "http://www.w3.org/TR/2001/REC-SVG-20010904/DTD/svg10.dtd">
<svg version="1.0" xmlns="http://www.w3.org/2000/svg"
 width="1654.000000pt" height="1654.000000pt" viewBox="0 0 1654.000000 1654.000000"
 preserveAspectRatio="xMidYMid meet">

<g transform="translate(0.000000,1654.000000) scale(0.100000,-0.100000)"
fill="#000000" stroke="none">
<path d="M7281 12624 c-253 -44 -492 -166 -680 -349 -159 -154 -273 -333 -341
-535 -30 -87 -37 -99 -90 -147 -171 -156 -225 -488 -112 -696 48 -89 155 -179
258 -215 31 -11 50 -25 52 -36 4 -17 -1 -18 -44 -12 -27 3 -175 9 -329 12
-229 5 -305 3 -417 -10 -241 -30 -393 -83 -478 -168 -119 -119 -113 -276 15
-403 88 -88 194 -129 480 -185 61 -12 114 -26 120 -31 5 -5 26 -9 47 -9 45 0
280 -40 290 -49 5 -4 -4 -193 -18 -421 -30 -484 -28 -593 9 -698 62 -176 196
-311 355 -358 29 -9 55 -21 57 -27 1 -7 8 -97 14 -200 6 -104 22 -293 36 -420
51 -488 114 -747 220 -901 29 -43 33 -37 -52 -87 l-52 -30 -81 26 c-130 40
-242 57 -435 62 -200 6 -338 -9 -500 -53 -234 -64 -336 -123 -408 -240 -25
-40 -28 -42 -90 -48 -107 -12 -161 -63 -159 -154 0 -37 -2 -42 -18 -37 -129
41 -251 16 -389 -78 -124 -85 -432 -354 -450 -393 -22 -49 -7 -100 37 -126 57
-34 591 -71 706 -49 81 15 154 50 206 100 24 22 45 41 46 41 2 0 10 -15 18
-34 20 -47 59 -71 118 -71 26 0 48 -3 48 -6 0 -4 -35 -12 -77 -20 -125 -22
-180 -77 -168 -168 6 -37 4 -43 -9 -38 -88 34 -228 27 -310 -15 -115 -58 -331
-228 -518 -407 -56 -53 -79 -82 -84 -106 -7 -37 15 -89 46 -105 23 -12 230
-35 465 -50 286 -19 403 5 511 105 26 25 50 45 53 45 3 0 14 -18 23 -40 13
-32 27 -45 64 -62 48 -21 85 -19 148 7 16 7 15 2 -9 -29 -19 -25 -30 -53 -33
-87 l-5 -50 -46 8 c-125 22 -220 -1 -341 -83 -84 -56 -282 -220 -393 -325 -66
-63 -77 -79 -77 -107 0 -44 23 -85 54 -100 66 -30 598 -63 700 -43 77 14 152
49 200 95 22 20 43 36 46 36 4 0 14 -16 23 -36 18 -38 65 -64 114 -64 15 0 59
14 97 30 l68 29 37 -18 c55 -28 153 -45 229 -38 87 7 287 51 375 83 236 84
518 262 671 424 l68 73 302 8 c444 12 734 39 1141 109 720 123 1220 280 1790
560 571 281 1053 615 1464 1015 304 297 489 547 523 708 17 82 2 122 -72 191
-339 313 -1435 557 -2387 532 -134 -3 -243 -5 -243 -4 0 2 9 26 19 53 61 159
49 398 -31 625 -66 186 -135 306 -271 468 -82 97 -172 177 -297 262 -146 101
-301 288 -272 328 51 70 53 77 50 138 -5 77 -37 124 -103 149 -37 15 -45 22
-46 44 0 14 -6 88 -13 165 -14 160 -28 133 117 209 413 216 590 506 507 831
-59 233 -253 426 -501 500 -12 3 -20 27 -29 87 -31 217 -137 459 -274 629
-187 231 -419 382 -711 462 -101 28 -125 31 -300 34 -135 2 -215 -1 -274 -12z
m402 -99 c56 -9 129 -23 162 -31 64 -17 219 -74 213 -79 -2 -2 -37 4 -78 12
-104 21 -341 21 -453 0 -346 -64 -660 -252 -855 -512 -29 -38 -75 -114 -103
-167 -27 -54 -53 -98 -57 -98 -4 0 -29 7 -56 15 -27 8 -62 15 -78 15 -15 0
-28 1 -28 3 0 1 9 26 20 55 130 342 415 617 758 732 192 64 374 82 555 55z
m312 -178 c198 -44 345 -109 415 -184 83 -87 86 -96 17 -44 -78 59 -219 129
-322 160 -166 51 -388 66 -557 36 -390 -68 -747 -335 -890 -666 -39 -91 -35
-86 -54 -67 -15 15 -12 24 30 109 170 348 507 589 926 665 95 17 339 12 435
-9z m110 -211 c334 -86 482 -256 530 -609 l7 -49 -29 6 c-15 3 -54 8 -85 12
l-57 6 -61 104 c-134 231 -351 393 -647 483 -54 16 -111 33 -127 36 -19 4 -25
10 -19 16 20 20 102 28 243 24 114 -3 166 -9 245 -29z m-989 -581 c69 -53 95
-165 55 -243 -23 -46 -46 -67 -94 -87 -122 -51 -253 107 -205 246 38 112 154
152 244 84z m-631 -9 c112 -66 185 -218 185 -386 0 -170 -75 -321 -185 -371
-60 -28 -66 -23 -25 20 193 203 116 656 -124 726 -31 9 -56 18 -56 20 0 3 15
9 33 14 48 15 124 5 172 -23z m-145 -92 c64 -32 125 -135 143 -240 13 -76 -1
-200 -31 -267 -81 -184 -246 -179 -339 9 -36 75 -38 83 -41 193 -3 100 -1 124
18 175 47 125 152 180 250 130z m2095 -54 c16 -26 35 -189 35 -305 0 -154 -17
-242 -64 -342 -41 -85 -22 -81 -251 -59 -181 18 -250 43 -355 131 -136 114
-161 219 -80 344 73 113 211 193 387 225 90 16 319 21 328 6z m246 -29 c225
-47 339 -102 448 -216 108 -115 161 -240 161 -382 0 -223 -157 -419 -471 -591
-42 -23 -79 -42 -82 -42 -3 0 -8 15 -12 33 -12 57 -16 66 -35 72 -11 3 -29 1
-40 -5 -19 -10 -21 -20 -19 -93 1 -45 5 -107 9 -137 5 -30 11 -91 15 -135 3
-44 8 -105 11 -137 l5 -56 -63 -15 c-71 -16 -66 -19 -87 58 -13 51 -59 99
-115 120 -42 16 -47 16 -542 -74 -274 -50 -519 -98 -544 -106 -25 -8 -71 -20
-103 -26 -44 -8 -69 -20 -98 -46 -54 -49 -66 -93 -51 -196 6 -44 10 -82 8 -85
-3 -2 -49 -11 -103 -19 -108 -16 -283 -13 -367 7 l-49 12 6 92 c4 50 10 157
13 238 l7 147 -24 11 c-13 5 -183 37 -377 69 -194 32 -355 60 -357 63 -3 2 0
20 5 39 12 43 45 280 60 424 6 61 13 121 16 134 l5 24 172 -7 c95 -4 213 -11
264 -16 l92 -8 123 -125 c255 -257 510 -374 888 -408 117 -11 150 -10 252 4
64 10 156 29 205 43 112 32 285 116 388 188 86 61 215 182 273 258 40 53 42
54 80 34 50 -25 91 7 78 60 -8 32 -50 50 -163 72 -50 10 -82 20 -79 27 68 149
89 250 88 425 0 74 -7 170 -14 213 -17 92 -24 88 123 58z m-1601 -321 c25 -25
27 -86 3 -112 -56 -62 -147 39 -97 110 19 28 67 29 94 2z m-406 -307 c93 -194
296 -394 511 -501 143 -71 343 -122 479 -122 42 0 76 -4 76 -9 0 -9 -95 -21
-169 -21 -65 0 -236 43 -339 86 -217 89 -399 237 -520 422 -66 100 -87 145
-78 167 9 24 21 18 40 -22z m-92 -95 c65 -132 173 -256 338 -391 l35 -29 -50
28 c-124 68 -281 210 -378 343 -26 35 -47 66 -47 70 0 7 46 28 65 30 6 1 23
-23 37 -51z m-781 -103 c17 -16 -67 -565 -89 -587 -7 -7 -187 29 -332 67 -165
43 -286 169 -266 277 23 126 203 210 506 238 108 9 175 11 181 5z m574 -803
l100 -17 -4 -135 c-2 -74 -5 -146 -6 -160 -1 -14 -3 -44 -3 -66 -2 -36 -6 -43
-31 -54 -99 -40 -125 -179 -49 -257 18 -18 40 -35 50 -38 16 -6 17 -27 16
-306 -2 -250 -4 -299 -16 -299 -33 0 -137 67 -185 120 -91 98 -137 221 -137
370 -1 47 9 262 22 478 l23 394 60 -7 c33 -4 105 -14 160 -23z m2032 -4 c27
-29 26 -28 68 -258 19 -107 44 -240 55 -295 10 -55 19 -116 20 -136 0 -63 -21
-73 -239 -113 -107 -20 -196 -34 -199 -32 -2 3 -15 64 -29 136 -29 147 -25
175 24 186 72 15 113 61 113 124 0 19 -13 112 -29 205 -16 94 -28 171 -26 173
6 7 143 30 181 31 30 1 46 -5 61 -21z m-264 -185 c28 -175 32 -220 19 -240 -4
-7 -28 -19 -52 -28 -98 -35 -109 -71 -76 -255 13 -74 22 -136 21 -138 -5 -6
-489 -92 -515 -92 -52 0 -65 30 -109 255 -94 485 -94 489 -44 522 16 11 152
40 362 79 185 34 343 63 351 63 13 1 21 -33 43 -166z m652 22 c31 -30 33 -82
5 -118 -16 -20 -40 -30 -111 -47 -51 -12 -95 -18 -99 -13 -8 10 -30 107 -30
137 0 19 11 24 78 42 105 29 128 29 157 -1z m-1545 -57 c0 -24 14 -115 30
-203 17 -88 44 -236 61 -330 16 -93 36 -180 44 -192 16 -25 14 -28 -32 -38
-28 -5 -37 -2 -61 22 -23 23 -31 43 -41 108 -7 44 -17 90 -22 103 -7 18 -3 31
18 58 39 53 43 120 9 179 -15 25 -30 45 -35 45 -4 0 -19 10 -33 23 -19 18 -27
40 -38 109 -12 78 -11 89 4 112 13 21 52 41 89 45 4 1 7 -18 7 -41z m1557
-265 c64 -98 173 -206 283 -280 136 -93 365 -327 365 -375 0 -6 -30 -21 -66
-33 -99 -34 -263 -121 -350 -187 -83 -62 -181 -164 -232 -238 -17 -25 -31 -46
-33 -48 -1 -2 -35 24 -76 58 -117 99 -284 170 -399 170 -104 0 -365 -78 -537
-160 -241 -115 -322 -212 -347 -414 -7 -56 -8 -57 -34 -51 -76 19 -198 37
-296 42 -177 9 -308 -20 -417 -93 -28 -19 -52 -33 -54 -31 -6 6 -43 389 -54
557 -5 91 -10 308 -10 484 l0 318 28 -6 c15 -3 80 -11 144 -18 110 -11 265 -4
393 18 l31 6 12 -75 c19 -113 30 -144 63 -182 47 -53 88 -61 206 -41 446 77
1103 201 1124 212 38 19 76 68 90 114 10 32 8 60 -11 165 -12 70 -20 128 -18
130 4 4 115 32 134 34 6 1 33 -34 61 -76z m-2259 -38 c120 -36 334 -37 516 -4
62 12 68 11 94 -8 38 -28 38 -87 1 -115 -74 -55 -405 -63 -593 -14 -113 29
-136 45 -136 92 0 26 6 37 28 48 34 19 29 19 90 1z m3017 -808 c85 -179 129
-409 106 -558 -19 -126 -45 -185 -110 -249 -61 -60 -106 -80 -184 -80 -138 0
-276 105 -402 305 -21 33 -58 86 -82 117 -23 31 -43 63 -43 71 0 23 109 165
171 223 67 63 152 120 249 169 77 39 215 94 238 95 7 0 33 -42 57 -93z m-1146
-208 c164 -57 308 -188 467 -425 40 -61 92 -132 115 -158 23 -26 40 -48 38
-50 -2 -2 -42 -11 -89 -21 -374 -74 -923 -241 -1330 -404 -96 -38 -176 -68
-178 -66 -2 2 3 55 12 117 9 62 23 205 31 318 16 212 33 317 59 367 49 97 233
204 497 292 194 64 262 69 378 30z m-1114 -592 l90 -23 -3 -40 c-32 -462 -76
-624 -200 -735 -115 -103 -283 -107 -366 -8 -78 93 -137 277 -180 563 -14 91
-14 102 1 128 31 52 117 103 226 133 80 23 315 13 432 -18z m3160 -47 c72 -5
161 -12 198 -16 l68 -7 54 -107 c241 -480 377 -1014 387 -1520 l3 -155 -100
-68 c-295 -201 -750 -442 -1085 -575 -418 -166 -872 -289 -1392 -376 -213 -36
-556 -81 -564 -74 -2 3 -13 90 -24 194 -95 908 -173 1207 -529 2023 -23 52
-38 98 -34 102 15 13 387 157 568 219 383 130 687 213 969 265 142 26 151 26
178 11 103 -61 254 -74 348 -30 30 14 76 43 102 65 46 39 51 40 145 48 139 12
555 12 708 1z m675 -86 c337 -61 669 -160 890 -265 121 -58 225 -118 217 -125
-2 -2 -62 14 -133 37 -314 98 -677 185 -1003 240 -96 16 -176 30 -177 32 -6 7
-54 107 -54 113 0 9 102 -3 260 -32z m-3759 -666 c7 -18 30 -70 51 -116 167
-360 283 -713 358 -1082 45 -222 61 -342 90 -660 11 -124 23 -241 26 -262 l5
-36 -68 -9 c-37 -4 -225 -8 -418 -8 -366 1 -503 11 -765 56 -158 27 -397 90
-443 116 -5 3 36 25 89 49 311 140 620 388 710 569 86 174 26 309 -182 407
-99 46 -248 82 -410 99 -120 12 -487 7 -534 -7 -23 -7 -23 -6 10 36 58 74 240
252 330 323 142 113 304 225 445 307 l134 79 45 -19 c127 -57 299 -22 412 82
24 22 53 56 65 74 11 19 24 34 29 34 4 0 13 -15 21 -32z m-1091 -169 c106 -13
220 -38 220 -48 0 -5 -19 -21 -42 -36 -95 -63 -309 -228 -404 -313 -56 -50
-105 -88 -108 -85 -3 4 -6 14 -6 23 0 33 -73 236 -121 339 -27 58 -46 108 -42
112 13 12 66 16 248 17 94 1 209 -3 255 -9z m-555 -136 c55 -109 117 -280 136
-380 l13 -61 -35 -40 c-19 -21 -51 -59 -71 -85 -34 -41 -46 -48 -136 -76 -54
-17 -124 -44 -157 -60 -33 -17 -62 -27 -66 -23 -3 4 -41 132 -84 284 -71 256
-76 279 -65 313 23 68 92 130 190 170 58 23 202 64 214 61 6 -1 33 -48 61
-103z m-561 -210 c8 -20 -9 -33 -44 -33 -14 0 -38 -7 -54 -15 -36 -19 -53 -2
-32 30 12 18 25 22 112 33 7 1 15 -6 18 -15z m-238 -188 c40 -17 50 -37 89
-178 23 -84 25 -103 15 -128 -17 -41 -73 -87 -115 -95 -44 -8 -194 9 -355 42
-182 36 -172 30 -118 78 25 22 86 77 134 120 49 43 122 101 163 128 81 53 122
60 187 33z m1599 -279 c213 -38 357 -103 407 -183 29 -48 27 -110 -7 -180 -42
-87 -208 -248 -364 -352 -117 -78 -334 -192 -392 -206 l-26 -6 -7 103 c-17
244 -84 499 -186 706 -32 64 -57 118 -56 120 2 1 36 6 77 11 110 14 447 6 554
-13z m-661 -150 c62 -127 109 -261 137 -391 19 -86 44 -398 34 -415 -3 -5 -47
-19 -98 -31 -130 -32 -295 -33 -353 -2 -22 12 -46 29 -54 38 -7 8 -53 155
-101 326 l-88 311 20 53 c25 67 78 116 173 161 91 43 246 85 263 72 7 -6 37
-60 67 -122z m-610 -202 c15 -40 7 -51 -42 -58 -26 -3 -58 -13 -70 -22 -28
-19 -42 -11 -42 25 0 33 18 51 63 61 54 13 84 11 91 -6z m-248 -209 c39 -16
53 -42 89 -170 37 -128 37 -136 12 -180 -46 -83 -133 -101 -337 -70 -107 16
-330 61 -337 69 -2 2 47 49 109 103 275 242 364 290 464 248z m489 -505 c-11
-5 -27 -9 -35 -9 -13 -1 -13 0 0 9 8 5 24 9 35 9 l20 0 -20 -9z m653 -42 l82
-33 20 -65 c49 -169 62 -238 68 -379 8 -168 23 -148 -141 -182 -131 -27 -234
-23 -295 11 -51 28 -42 4 -172 490 -17 63 -33 122 -36 131 -4 14 9 17 83 23
49 4 124 15 168 26 97 23 117 21 223 -22z m-560 -74 c3 -18 -4 -22 -36 -28
-21 -3 -50 -15 -64 -26 -29 -22 -38 -18 -38 21 0 33 11 41 65 50 57 10 70 7
73 -17z m903 -28 c129 -28 351 -62 481 -72 68 -5 85 -10 81 -21 -9 -23 -152
-141 -253 -208 -95 -64 -264 -153 -338 -179 l-39 -14 -12 151 c-7 84 -23 198
-37 255 -28 121 -28 126 -10 119 7 -3 65 -17 127 -31z m-1130 -153 c24 -14 34
-33 53 -93 57 -181 57 -207 5 -259 -46 -46 -93 -55 -224 -41 -116 12 -375 57
-385 67 -13 14 252 238 362 306 71 43 138 50 189 20z"/>
<path d="M7581 9375 c-91 -23 -139 -90 -128 -181 7 -64 46 -118 100 -139 37
-14 54 -15 101 -6 73 13 113 42 138 99 34 77 0 185 -72 223 -40 22 -63 22
-139 4z m104 -57 c78 -35 71 -184 -7 -176 -64 6 -99 117 -54 167 22 24 26 25
61 9z m-140 -162 c6 -13 5 -17 -3 -12 -17 10 -32 76 -24 105 5 22 8 18 13 -24
3 -27 10 -59 14 -69z"/>
<path d="M9465 7045 c-348 -77 -584 -333 -627 -682 -25 -201 43 -423 179 -589
100 -123 276 -229 433 -260 202 -40 445 7 607 117 180 123 300 310 338 524 4
22 7 83 6 135 -3 309 -200 597 -487 714 -130 53 -318 70 -449 41z m335 -101
c111 -33 210 -93 295 -178 44 -45 91 -101 104 -126 l23 -45 -28 35 c-86 109
-220 201 -359 247 -73 25 -94 27 -230 27 -135 0 -158 -2 -228 -26 -109 -37
-210 -100 -295 -185 -92 -92 -68 -42 30 61 97 104 219 171 367 202 82 17 245
11 321 -12z m-75 -239 c124 -32 231 -123 289 -245 29 -61 31 -72 31 -180 0
-109 -2 -119 -32 -183 -168 -353 -677 -336 -815 28 -18 48 -23 80 -23 161 0
95 2 104 37 175 98 198 306 297 513 244z"/>
<path d="M9965 6133 c-74 -55 -214 -108 -330 -124 -89 -13 -206 -2 -286 26
-21 8 -39 10 -39 5 0 -19 95 -91 149 -112 45 -18 75 -22 156 -22 91 0 106 3
167 31 77 36 161 109 190 166 22 45 21 51 -7 30z"/>
</g>
</svg>
